<?xml version="1.0" standalone="no"?><!DOCTYPE svg PUBLIC "-//W3C//DTD SVG 1.1//EN" "http://www.w3.org/Graphics/SVG/1.1/DTD/svg11.dtd"><svg t="1773804394977" class="icon" viewBox="0 0 1024 1024" version="1.1" xmlns="http://www.w3.org/2000/svg" p-id="6446" xmlns:xlink="http://www.w3.org/1999/xlink" width="200" height="200"><path d="M795 799H223l572.5-572.5z" fill="#13227a" p-id="6447"></path><path d="M234.792 821.8c-17.642 0-32.077-14.435-32.077-32.077V131.077c0-17.642 14.435-32.077 32.077-32.077 17.642 0 32.077 14.435 32.077 32.077v658.646c0 17.642-14.434 32.077-32.077 32.077z" fill="#13227a" p-id="6448"></path><path d="M925.515 789.723c0 17.642-14.435 32.077-32.077 32.077H234.792c-17.642 0-32.077-14.435-32.077-32.077 0-17.642 14.435-32.077 32.077-32.077h658.646c17.643 0 32.077 14.435 32.077 32.077z" fill="#13227a" p-id="6449"></path><path d="M789.723 204.2c17.642 0 32.077 14.435 32.077 32.077v658.646c0 17.642-14.435 32.077-32.077 32.077-17.642 0-32.077-14.435-32.077-32.077V236.277c0-17.642 14.435-32.077 32.077-32.077z" fill="#13227a" p-id="6450"></path><path d="M99 236.277c0-17.642 14.435-32.077 32.077-32.077h658.646c17.642 0 32.077 14.435 32.077 32.077 0 17.642-14.435 32.077-32.077 32.077H131.077c-17.642 0-32.077-14.435-32.077-32.077z" fill="#13227a" p-id="6451"></path><path d="M886.856 137.856c12.475 12.475 12.475 32.889 0 45.364L257.72 812.356c-12.475 12.475-32.889 12.475-45.364 0-12.475-12.475-12.475-32.889 0-45.364l629.136-629.136c12.476-12.475 32.889-12.475 45.364 0z" fill="#13227a" p-id="6452"></path></svg>